# xmcd CD database file
# Copyright (C) 1997 Ti Kan
# 
# Track frame offsets:
#     180
#     22955
#     43887
#     69442
#     90355
#     108142
#     130690
#     156510
#     174817
#     205690
# 
# Disc length: 2995 seconds
# 
# Revision: 1
# Processed by: cddbd v1.4b41PL1 Copyright (c) Steve Scherf et al.
# Submitted via: DiscPlay 4.0.4
# 
DISCID=730bb10a
DTITLE=Bobby King and Terry Evans - Rhythm, Blues, Soul and Grooves
DYEAR=1900
DGENRE=
TTITLE0=One Way Ticket to Memphis
TTITLE1=Where We Gonna Go From Here
TTITLE2=You're the One
TTITLE3=We'll Always Be Together
TTITLE4=I Fancy You
TTITLE5=I Wanna Be With You
TTITLE6=I'll Be Strong
TTITLE7=I'm in Love
TTITLE8=You and Me
TTITLE9=Boogie Jam
EXTD=
EXTT0=
EXTT1=
EXTT2=
EXTT3=
EXTT4=
EXTT5=
EXTT6=
EXTT7=
EXTT8=
EXTT9=
PLAYORDER=
